<?xml version="1.0" encoding="UTF-8"?><svg id="Layer_2" xmlns="http://www.w3.org/2000/svg" xmlns:xlink="http://www.w3.org/1999/xlink" viewBox="0 0 17 17"><defs><style>.cls-1{fill:url(#linear-gradient-2);}.cls-1,.cls-2{fill-rule:evenodd;}.cls-3{fill:url(#linear-gradient);}.cls-2{fill:url(#linear-gradient-3);}</style><linearGradient id="linear-gradient" x1="8.45" y1="735" x2="8.45" y2="742" gradientTransform="translate(0 -730)" gradientUnits="userSpaceOnUse"><stop offset="0" stop-color="#d4145a"/><stop offset="1" stop-color="#93278f"/></linearGradient><linearGradient id="linear-gradient-2" x1="8.5" x2="8.5" xlink:href="#linear-gradient"/><linearGradient id="linear-gradient-3" x1="8.5" y1="730" x2="8.5" y2="747" xlink:href="#linear-gradient"/></defs><g id="Layer_1-2"><g><path class="cls-3" d="m13,7.9l.2-.2c.1-.1.1-.2,0-.3l-2.1-2.1c-.1-.1-.2-.1-.3,0l-2.2,2.2c-.1.1-.2.1-.3,0l-2.2-2.2c-.1-.1-.2-.1-.3,0l-2.1,2.1c-.1.1-.1.2,0,.3l.2.2c.1.1.2.1.3,0l1.6-1.6c.1-.1.2-.1.3,0l1.7,1.7c.1.1.1.2,0,.3l-3,3c-.1.1-.1.2,0,.3l.2.2c.1.1.2.1.3,0l3-3c.1-.1.2-.1.3,0l3,3c.1.1.2.1.3,0l.2-.2c.1-.1.1-.2,0-.3l-3-3c-.1-.2-.1-.3,0-.3l1.7-1.7c.1-.1.2-.1.3,0l1.6,1.6c.1.1.2.1.3,0Z"/><path class="cls-1" d="m13.1,8.1c-.2.2-.4.2-.6,0h0l-1.6-1.6-1.6,1.6,2.9,2.9c.2.2.2.5,0,.6l-.2.2c-.2.2-.5.2-.6,0l-2.9-2.9-2.9,2.9c-.2.2-.5.2-.6,0l-.2-.2c-.2-.2-.2-.5,0-.6l2.9-2.9-1.6-1.6-1.6,1.6c-.2.2-.5.2-.6,0l-.2-.2c-.2-.2-.2-.5,0-.6l2.1-2.1c.2-.2.5-.2.6,0l2.1,2.1,2.1-2.1c.2-.2.5-.2.6,0l2.1,2.1c.2.2.2.5,0,.6l-.2.2Zm-2-2.8c-.1-.1-.2-.1-.3,0l-2.2,2.2c-.1.1-.2.1-.3,0l-2.2-2.2c-.1-.1-.2-.1-.3,0l-2.1,2.1c-.1.1-.1.2,0,.3l.2.2c.1.1.2.1.3,0l1.6-1.6c.1-.1.2-.1.3,0l1.7,1.7c.1.1.1.2,0,.3l-3,3c-.1.1-.1.2,0,.3l.2.2c.1.1.2.1.3,0l3-3c.1-.1.2-.1.3,0l3,3c.1.1.2.1.3,0l.2-.2c.1-.1.1-.2,0-.3l-3-3c-.1-.2-.1-.3,0-.3l1.7-1.7c.1-.1.2-.1.3,0l1.6,1.6c.1.1.2.1.3,0l.2-.2c.1-.1.1-.2,0-.3l-2.1-2.1Z"/></g><path class="cls-2" d="m8.5,15.9c4.1,0,7.4-3.3,7.4-7.4S12.6,1.1,8.5,1.1,1.1,4.4,1.1,8.5s3.3,7.4,7.4,7.4Zm0,1.1c4.7,0,8.5-3.8,8.5-8.5S13.2,0,8.5,0,0,3.8,0,8.5s3.8,8.5,8.5,8.5Z"/></g></svg>