<?xml version="1.0" encoding="utf-8"?>
<!-- Generator: Adobe Illustrator 27.1.1, SVG Export Plug-In . SVG Version: 6.00 Build 0)  -->
<svg version="1.1" id="Layer_1" xmlns="http://www.w3.org/2000/svg" xmlns:xlink="http://www.w3.org/1999/xlink" x="0px" y="0px"
	 viewBox="0 0 222 36" style="enable-background:new 0 0 222 36;" xml:space="preserve">
<style type="text/css">
	.st0{fill:url(#SVGID_1_);}
	.st1{fill:url(#SVGID_00000165213006631144473160000002445817229398846336_);}
	.st2{fill:url(#SVGID_00000095302552156517043210000010819259160517250210_);}
	.st3{fill:url(#SVGID_00000089549238374114998040000002784862643949813144_);}
	.st4{fill:url(#SVGID_00000031912403387523365920000005639551067261883058_);}
	.st5{fill:url(#SVGID_00000173130272456418267930000001851923446478805408_);}
	.st6{fill:url(#SVGID_00000109027283358645407200000012156484549143519908_);}
	.st7{fill:url(#SVGID_00000039850069274242343440000014674151523695500201_);}
	.st8{fill:url(#SVGID_00000164481244285705719290000001932318481090984346_);}
	.st9{fill:url(#SVGID_00000086693356391645326720000012700744171231761063_);}
	.st10{fill-rule:evenodd;clip-rule:evenodd;fill:url(#SVGID_00000018936532849199392280000016241396922107745968_);}
	.st11{fill-rule:evenodd;clip-rule:evenodd;fill:url(#SVGID_00000062179783027424353770000006714146794176224662_);}
</style>
<linearGradient id="SVGID_1_" gradientUnits="userSpaceOnUse" x1="40.6091" y1="90.7242" x2="7.1171" y2="23.2674" gradientTransform="matrix(1 0 0 -1 0 38)">
	<stop  offset="7.812500e-02" style="stop-color:#93278F"/>
	<stop  offset="0.5" style="stop-color:#1D5AB5"/>
	<stop  offset="1" style="stop-color:#D4145A"/>
</linearGradient>
<path class="st0" d="M7.1,8.8V35H0V8.8H7.1z"/>
<linearGradient id="SVGID_00000142173865215359846350000008145978114791652781_" gradientUnits="userSpaceOnUse" x1="56.225" y1="82.9709" x2="22.7329" y2="15.5141" gradientTransform="matrix(1 0 0 -1 0 38)">
	<stop  offset="7.812500e-02" style="stop-color:#93278F"/>
	<stop  offset="0.5" style="stop-color:#1D5AB5"/>
	<stop  offset="1" style="stop-color:#D4145A"/>
</linearGradient>
<path style="fill:url(#SVGID_00000142173865215359846350000008145978114791652781_);" d="M27.5,17.5c-0.1-0.5-0.3-0.8-0.5-1.2
	c-0.2-0.3-0.5-0.6-0.9-0.9c-0.3-0.2-0.8-0.4-1.2-0.5c-0.5-0.1-1-0.2-1.5-0.2c-1.2,0-2.2,0.3-3.1,0.9c-0.8,0.6-1.5,1.4-1.9,2.5
	c-0.4,1.1-0.7,2.4-0.7,3.9c0,1.5,0.2,2.8,0.6,3.9s1,1.9,1.9,2.5c0.8,0.6,1.9,0.9,3.1,0.9c1.1,0,2-0.2,2.7-0.5
	c0.7-0.3,1.3-0.8,1.6-1.3c0.4-0.6,0.5-1.3,0.5-2l1.2,0.1h-6v-5.1H35V24c0,2.4-0.5,4.4-1.5,6.1c-1,1.7-2.4,3-4.2,3.9
	c-1.8,0.9-3.8,1.3-6.1,1.3c-2.5,0-4.8-0.5-6.7-1.6c-1.9-1.1-3.4-2.6-4.5-4.6c-1.1-2-1.6-4.4-1.6-7.1c0-2.2,0.3-4.1,1-5.8
	c0.7-1.7,1.6-3.1,2.8-4.2c1.2-1.2,2.5-2,4.1-2.6c1.5-0.6,3.2-0.9,5-0.9c1.6,0,3,0.2,4.3,0.7C28.8,9.6,30,10.2,31,11
	c1,0.8,1.9,1.8,2.5,2.9c0.6,1.1,1,2.3,1.2,3.6H27.5z"/>
<linearGradient id="SVGID_00000169519495227286396020000004712640349783770768_" gradientUnits="userSpaceOnUse" x1="82.8223" y1="69.7655" x2="49.3303" y2="2.3087" gradientTransform="matrix(1 0 0 -1 0 38)">
	<stop  offset="7.812500e-02" style="stop-color:#93278F"/>
	<stop  offset="0.5" style="stop-color:#1D5AB5"/>
	<stop  offset="1" style="stop-color:#D4145A"/>
</linearGradient>
<path style="fill:url(#SVGID_00000169519495227286396020000004712640349783770768_);" d="M59.6,17c-0.1-0.9-0.4-1.5-1-2
	c-0.6-0.5-1.4-0.7-2.6-0.7c-0.7,0-1.3,0.1-1.8,0.3c-0.5,0.2-0.8,0.4-1,0.7s-0.3,0.6-0.3,1c0,0.3,0,0.6,0.2,0.9
	c0.1,0.2,0.3,0.5,0.6,0.7c0.3,0.2,0.7,0.4,1.1,0.5c0.5,0.2,1,0.3,1.6,0.4l2.1,0.5c1.4,0.3,2.7,0.7,3.7,1.2c1,0.5,1.9,1.1,2.5,1.8
	c0.7,0.7,1.1,1.4,1.4,2.3c0.3,0.8,0.5,1.8,0.5,2.8c0,1.7-0.4,3.2-1.3,4.4c-0.9,1.2-2.1,2.1-3.7,2.7c-1.6,0.6-3.5,0.9-5.7,0.9
	c-2.3,0-4.3-0.3-6-1c-1.7-0.7-3-1.7-3.9-3.1c-0.9-1.4-1.4-3.2-1.4-5.4h6.8c0,0.8,0.2,1.5,0.6,2c0.4,0.5,0.9,1,1.5,1.2
	c0.7,0.3,1.4,0.4,2.3,0.4c0.8,0,1.4-0.1,1.9-0.3c0.5-0.2,0.9-0.4,1.2-0.8c0.3-0.3,0.4-0.7,0.4-1.1c0-0.4-0.1-0.8-0.4-1
	c-0.2-0.3-0.7-0.6-1.2-0.8c-0.6-0.2-1.3-0.5-2.3-0.7l-2.6-0.6c-2.3-0.5-4.1-1.3-5.5-2.5c-1.3-1.2-2-2.8-2-4.8c0-1.7,0.4-3.1,1.3-4.4
	c0.9-1.3,2.2-2.2,3.7-2.9c1.6-0.7,3.4-1,5.5-1c2.1,0,3.9,0.4,5.5,1.1c1.5,0.7,2.7,1.7,3.6,3c0.8,1.3,1.3,2.8,1.3,4.5H59.6z"/>
<linearGradient id="SVGID_00000045610061902939979990000007804682160317868717_" gradientUnits="userSpaceOnUse" x1="98.855" y1="61.8053" x2="65.363" y2="-5.6515" gradientTransform="matrix(1 0 0 -1 0 38)">
	<stop  offset="7.812500e-02" style="stop-color:#93278F"/>
	<stop  offset="0.5" style="stop-color:#1D5AB5"/>
	<stop  offset="1" style="stop-color:#D4145A"/>
</linearGradient>
<path style="fill:url(#SVGID_00000045610061902939979990000007804682160317868717_);" d="M68.7,14.5V8.8h22.8v5.7h-7.9V35h-7V14.5
	H68.7z"/>
<linearGradient id="SVGID_00000073685837010786259720000015586395118630194820_" gradientUnits="userSpaceOnUse" x1="120.9631" y1="50.8287" x2="87.4711" y2="-16.6281" gradientTransform="matrix(1 0 0 -1 0 38)">
	<stop  offset="7.812500e-02" style="stop-color:#93278F"/>
	<stop  offset="0.5" style="stop-color:#1D5AB5"/>
	<stop  offset="1" style="stop-color:#D4145A"/>
</linearGradient>
<path style="fill:url(#SVGID_00000073685837010786259720000015586395118630194820_);" d="M109.6,8.8h7.1v16.8c0,2-0.5,3.7-1.4,5.2
	c-0.9,1.4-2.3,2.6-4,3.4c-1.7,0.8-3.7,1.2-5.9,1.2c-2.3,0-4.2-0.4-5.9-1.2c-1.7-0.8-3-1.9-4-3.4c-0.9-1.5-1.4-3.2-1.4-5.2V8.8h7.1
	V25c0,0.8,0.2,1.5,0.5,2.2c0.4,0.6,0.9,1.1,1.5,1.5c0.6,0.4,1.4,0.5,2.2,0.5c0.8,0,1.5-0.2,2.2-0.5c0.6-0.4,1.1-0.9,1.5-1.5
	c0.4-0.6,0.5-1.4,0.5-2.2V8.8z"/>
<linearGradient id="SVGID_00000011003797484027142890000009487278371172092852_" gradientUnits="userSpaceOnUse" x1="141.5576" y1="40.6037" x2="108.0655" y2="-26.8531" gradientTransform="matrix(1 0 0 -1 0 38)">
	<stop  offset="7.812500e-02" style="stop-color:#93278F"/>
	<stop  offset="0.5" style="stop-color:#1D5AB5"/>
	<stop  offset="1" style="stop-color:#D4145A"/>
</linearGradient>
<path style="fill:url(#SVGID_00000011003797484027142890000009487278371172092852_);" d="M130.2,35h-10.1V8.8h10c2.7,0,5,0.5,7,1.6
	c2,1,3.5,2.5,4.6,4.5c1.1,2,1.6,4.3,1.6,7s-0.5,5.1-1.6,7c-1.1,2-2.6,3.5-4.5,4.5C135.2,34.5,132.9,35,130.2,35z M127.2,29h2.7
	c1.3,0,2.4-0.2,3.3-0.6c0.9-0.4,1.6-1.1,2.1-2.2c0.5-1,0.7-2.4,0.7-4.3s-0.2-3.2-0.7-4.3c-0.5-1-1.2-1.7-2.1-2.2
	c-0.9-0.4-2.1-0.6-3.5-0.6h-2.5V29z"/>
<linearGradient id="SVGID_00000005248488897529963500000014902428972187291832_" gradientUnits="userSpaceOnUse" x1="158.1623" y1="32.3595" x2="124.6703" y2="-35.0973" gradientTransform="matrix(1 0 0 -1 0 38)">
	<stop  offset="7.812500e-02" style="stop-color:#93278F"/>
	<stop  offset="0.5" style="stop-color:#1D5AB5"/>
	<stop  offset="1" style="stop-color:#D4145A"/>
</linearGradient>
<path style="fill:url(#SVGID_00000005248488897529963500000014902428972187291832_);" d="M153.6,8.8V35h-7.1V8.8H153.6z"/>
<linearGradient id="SVGID_00000012456901468866042010000000210454464324937372_" gradientUnits="userSpaceOnUse" x1="172.6897" y1="25.1467" x2="139.1977" y2="-42.3101" gradientTransform="matrix(1 0 0 -1 0 38)">
	<stop  offset="7.812500e-02" style="stop-color:#93278F"/>
	<stop  offset="0.5" style="stop-color:#1D5AB5"/>
	<stop  offset="1" style="stop-color:#D4145A"/>
</linearGradient>
<path style="fill:url(#SVGID_00000012456901468866042010000000210454464324937372_);" d="M167.8,8.8h7v17.9c0,1.7-0.4,3.2-1.3,4.5
	c-0.8,1.3-2,2.3-3.5,3c-1.5,0.7-3.2,1.1-5.1,1.1c-1.7,0-3.2-0.3-4.6-0.9c-1.4-0.6-2.5-1.5-3.3-2.8c-0.8-1.3-1.2-2.9-1.2-4.9h7.1
	c0,0.7,0.1,1.2,0.3,1.7c0.2,0.5,0.5,0.8,0.8,1c0.4,0.2,0.8,0.3,1.3,0.3c0.5,0,1-0.1,1.3-0.3c0.4-0.2,0.6-0.6,0.8-1
	c0.2-0.5,0.3-1,0.3-1.7V8.8z"/>
<linearGradient id="SVGID_00000107548291058203817810000005854193011311380871_" gradientUnits="userSpaceOnUse" x1="194.2944" y1="14.4201" x2="160.8024" y2="-53.0367" gradientTransform="matrix(1 0 0 -1 0 38)">
	<stop  offset="7.812500e-02" style="stop-color:#93278F"/>
	<stop  offset="0.5" style="stop-color:#1D5AB5"/>
	<stop  offset="1" style="stop-color:#D4145A"/>
</linearGradient>
<path style="fill:url(#SVGID_00000107548291058203817810000005854193011311380871_);" d="M185,35h-7.7l8.6-26.2h9.7l8.6,26.2h-7.7
	l-5.7-19h-0.2L185,35z M183.5,24.7H198V30h-14.4V24.7z"/>
<g>
	
		<linearGradient id="SVGID_00000123425503855881791840000016577008187173105831_" gradientUnits="userSpaceOnUse" x1="213.5008" y1="33" x2="213.5008" y2="26" gradientTransform="matrix(1 0 0 -1 0 38)">
		<stop  offset="0" style="stop-color:#D4145A"/>
		<stop  offset="1" style="stop-color:#93278F"/>
	</linearGradient>
	<path style="fill:url(#SVGID_00000123425503855881791840000016577008187173105831_);" d="M218,7.9l0.2-0.2c0.1-0.1,0.1-0.2,0-0.3
		l-2.1-2.1c-0.1-0.1-0.2-0.1-0.3,0l-2.2,2.2c-0.1,0.1-0.2,0.1-0.3,0l-2.2-2.2c-0.1-0.1-0.2-0.1-0.3,0l-2.1,2.1
		c-0.1,0.1-0.1,0.2,0,0.3l0.2,0.2c0.1,0.1,0.2,0.1,0.3,0l1.6-1.6c0.1-0.1,0.2-0.1,0.3,0l1.7,1.7c0.1,0.1,0.1,0.2,0,0.3l-3,3
		c-0.1,0.1-0.1,0.2,0,0.3l0.2,0.2c0.1,0.1,0.2,0.1,0.3,0l3-3c0.1-0.1,0.2-0.1,0.3,0l3,3c0.1,0.1,0.2,0.1,0.3,0l0.2-0.2
		c0.1-0.1,0.1-0.2,0-0.3l-3-3C214,8.1,214,8,214.1,8l1.7-1.7c0.1-0.1,0.2-0.1,0.3,0l1.6,1.6C217.8,8,217.9,8,218,7.9z"/>
	
		<linearGradient id="SVGID_00000075161408801513719530000009361781229416362925_" gradientUnits="userSpaceOnUse" x1="213.5008" y1="33" x2="213.5008" y2="26" gradientTransform="matrix(1 0 0 -1 0 38)">
		<stop  offset="0" style="stop-color:#D4145A"/>
		<stop  offset="1" style="stop-color:#93278F"/>
	</linearGradient>
	<path style="fill-rule:evenodd;clip-rule:evenodd;fill:url(#SVGID_00000075161408801513719530000009361781229416362925_);" d="
		M218.1,8.1c-0.2,0.2-0.4,0.2-0.6,0l0,0l-1.6-1.6l-1.6,1.6l2.9,2.9c0.2,0.2,0.2,0.5,0,0.6l-0.2,0.2c-0.2,0.2-0.5,0.2-0.6,0l-2.9-2.9
		l-2.9,2.9c-0.2,0.2-0.5,0.2-0.6,0l-0.2-0.2c-0.2-0.2-0.2-0.5,0-0.6l2.9-2.9l-1.6-1.6l-1.6,1.6c-0.2,0.2-0.5,0.2-0.6,0l-0.2-0.2
		c-0.2-0.2-0.2-0.5,0-0.6l2.1-2.1c0.2-0.2,0.5-0.2,0.6,0l2.1,2.1l2.1-2.1c0.2-0.2,0.5-0.2,0.6,0l2.1,2.1c0.2,0.2,0.2,0.5,0,0.6
		L218.1,8.1z M216.1,5.3c-0.1-0.1-0.2-0.1-0.3,0l-2.2,2.2c-0.1,0.1-0.2,0.1-0.3,0l-2.2-2.2c-0.1-0.1-0.2-0.1-0.3,0l-2.1,2.1
		c-0.1,0.1-0.1,0.2,0,0.3l0.2,0.2c0.1,0.1,0.2,0.1,0.3,0l1.6-1.6c0.1-0.1,0.2-0.1,0.3,0l1.7,1.7c0.1,0.1,0.1,0.2,0,0.3l-3,3
		c-0.1,0.1-0.1,0.2,0,0.3l0.2,0.2c0.1,0.1,0.2,0.1,0.3,0l3-3c0.1-0.1,0.2-0.1,0.3,0l3,3c0.1,0.1,0.2,0.1,0.3,0l0.2-0.2
		c0.1-0.1,0.1-0.2,0-0.3l-3-3C214,8.1,214,8,214.1,8l1.7-1.7c0.1-0.1,0.2-0.1,0.3,0l1.6,1.6c0.1,0.1,0.2,0.1,0.3,0l0.2-0.2
		c0.1-0.1,0.1-0.2,0-0.3L216.1,5.3z"/>
</g>
<linearGradient id="SVGID_00000158749682822095236900000000018837816210441601_" gradientUnits="userSpaceOnUse" x1="213.5008" y1="38" x2="213.5008" y2="21" gradientTransform="matrix(1 0 0 -1 0 38)">
	<stop  offset="0" style="stop-color:#D4145A"/>
	<stop  offset="1" style="stop-color:#93278F"/>
</linearGradient>
<path style="fill-rule:evenodd;clip-rule:evenodd;fill:url(#SVGID_00000158749682822095236900000000018837816210441601_);" d="
	M213.5,15.9c4.1,0,7.4-3.3,7.4-7.4s-3.3-7.4-7.4-7.4s-7.4,3.3-7.4,7.4S209.4,15.9,213.5,15.9z M213.5,17c4.7,0,8.5-3.8,8.5-8.5
	c0-4.7-3.8-8.5-8.5-8.5S205,3.8,205,8.5C205,13.2,208.8,17,213.5,17z"/>
</svg>
